<svg width="113" height="121" viewBox="0 0 113 121" fill="none" xmlns="http://www.w3.org/2000/svg">
    <path
        d="M111.3 47.2999H110.3V47.4999H106.6H105.6V48.4999V98.4999V99.4999H106.6H111.3C111.548 99.4999 111.7 99.6522 111.7 99.8999V119C111.7 119.248 111.548 119.4 111.3 119.4H84.4C84.1523 119.4 84 119.248 84 119V97.7836V96.0999V95.0999V94.5999V55.0999V51.9294L82.181 54.5262L68.381 74.2262L67.9801 74.7984L68.3796 75.3717L82.1296 95.0999H59.3C59.1225 95.0999 59.02 95.0524 58.9139 94.918L57.3321 92.5452L56.5219 91.33L55.6819 92.5248L36.9923 119.11C36.8841 119.25 36.781 119.3 36.6 119.3H15.9C15.8211 119.3 15.7676 119.3 15.7191 119.298C15.7105 119.297 15.7027 119.297 15.6957 119.296L15.6812 119.286C15.5286 119.177 15.4853 119.074 15.4719 118.999C15.4575 118.918 15.4655 118.791 15.5498 118.63L45.1187 76.4741L45.5191 75.9033L45.1219 75.3302L39.0625 66.5889L38.8944 66.2527L38.862 66.1879L38.8206 66.1284L31.0206 54.9284L29.2 52.3142V55.4999V94.4999C29.2 94.7476 29.0477 94.8999 28.8 94.8999H1.39999C1.15228 94.8999 1 94.7476 1 94.4999V73.3999C1 73.1522 1.15228 72.9999 1.39999 72.9999H6.6H7.6V71.9999V24.6999V23.6999H6.6H1.39999C1.15228 23.6999 1 23.5476 1 23.2999V2.29991C1 2.05218 1.15229 1.8999 1.39999 1.8999H28.8C29.0477 1.8999 29.2 2.05218 29.2 2.29991V42.0999V45.2469L31.0166 42.6772L59.707 2.09064C59.8156 1.94954 59.9187 1.8999 60.1 1.8999H82.1C82.1414 1.8999 82.175 1.90716 82.1958 1.9147C82.1991 1.91591 82.2017 1.917 82.2038 1.91789L82.225 1.93909L82.2598 1.96813C82.3805 2.06868 82.4556 2.20797 82.477 2.33231C82.4968 2.44691 82.4691 2.51493 82.4318 2.55972L82.4062 2.59043L82.3831 2.62308L50.1831 48.2231L49.7773 48.7979L50.1812 49.374L56.2812 58.074L57.0988 59.2401L57.918 58.0751L79.4193 27.4999H111.3C111.548 27.4999 111.7 27.6522 111.7 27.8999V46.8999C111.7 47.1476 111.548 47.2999 111.3 47.2999Z"
        fill="#805AD5" stroke="white" stroke-width="2" />
</svg>